<svg xmlns="http://www.w3.org/2000/svg" viewBox="0 0 200 120" preserveAspectRatio="xMidYMid slice">
    <defs>
        <linearGradient id="g1" x1="0" y1="0" x2="1" y2="1">
            <stop offset="0%" stop-color="#5b8dff"/>
            <stop offset="100%" stop-color="#8a5bff"/>
        </linearGradient>
    </defs>
    <rect width="200" height="120" fill="url(#g1)"/>
    <g fill="none" stroke="rgba(255,255,255,.35)" stroke-width="1.2">
        <path d="M0 40 Q50 20 100 40 T200 40"/>
        <path d="M0 60 Q50 40 100 60 T200 60"/>
        <path d="M0 80 Q50 60 100 80 T200 80"/>
    </g>
    <g transform="translate(100 60)" fill="rgba(255,255,255,.95)">
        <circle r="22" fill="rgba(255,255,255,.12)"/>
        <path transform="translate(-12 -10)" d="M19 10c0 4-3 6-6 6h-9a4 4 0 1 1 .8-7.9 6 6 0 0 1 11.7 1.4A4 4 0 0 1 19 10z"/>
    </g>
</svg>
