<svg xmlns="http://www.w3.org/2000/svg" viewBox="0 0 200 120" preserveAspectRatio="xMidYMid slice">
    <defs>
        <linearGradient id="g3" x1="0" y1="0" x2="1" y2="1">
            <stop offset="0%" stop-color="#10b981"/>
            <stop offset="100%" stop-color="#0ea5e9"/>
        </linearGradient>
    </defs>
    <rect width="200" height="120" fill="url(#g3)"/>
    <g stroke="rgba(255,255,255,.25)" stroke-width="1" fill="none">
        <path d="M0 0h200M0 30h200M0 60h200M0 90h200M0 120h200"/>
        <path d="M0 0v120M40 0v120M80 0v120M120 0v120M160 0v120M200 0v120"/>
    </g>
    <g transform="translate(100 60)">
        <path d="M0 -28L-22 -18v14c0 14 9 24 22 28 13-4 22-14 22-28v-14z" fill="rgba(255,255,255,.95)"/>
        <path d="M-6 0l4 4 8-8" stroke="#10b981" stroke-width="3" stroke-linecap="round" stroke-linejoin="round" fill="none"/>
    </g>
</svg>
