<svg xmlns="http://www.w3.org/2000/svg" style="display:none">
    <!-- ===== Theme toggle ===== -->
    <symbol id="sun" viewBox="0 0 24 24" fill="none" stroke="currentColor" stroke-linecap="round" stroke-linejoin="round">
        <circle cx="12" cy="12" r="4"/>
        <path d="M12 2v2M12 20v2M4.93 4.93l1.41 1.41M17.66 17.66l1.41 1.41M2 12h2M20 12h2M4.93 19.07l1.41-1.41M17.66 6.34l1.41-1.41"/>
    </symbol>
    <symbol id="moon" viewBox="0 0 24 24" fill="none" stroke="currentColor" stroke-linecap="round" stroke-linejoin="round">
        <path d="M21 12.79A9 9 0 1 1 11.21 3 7 7 0 0 0 21 12.79z"/>
    </symbol>

    <!-- ===== Generic UI ===== -->
    <symbol id="arrow-right" viewBox="0 0 24 24" fill="none" stroke="currentColor" stroke-linecap="round" stroke-linejoin="round">
        <path d="M5 12h14M13 5l7 7-7 7"/>
    </symbol>
    <symbol id="chevron-right" viewBox="0 0 24 24" fill="none" stroke="currentColor" stroke-linecap="round" stroke-linejoin="round">
        <path d="M9 18l6-6-6-6"/>
    </symbol>
    <symbol id="chevron-up" viewBox="0 0 24 24" fill="none" stroke="currentColor" stroke-linecap="round" stroke-linejoin="round">
        <path d="M18 15l-6-6-6 6"/>
    </symbol>
    <symbol id="close" viewBox="0 0 24 24" fill="none" stroke="currentColor" stroke-linecap="round" stroke-linejoin="round">
        <line x1="18" y1="6" x2="6" y2="18"/>
        <line x1="6" y1="6" x2="18" y2="18"/>
    </symbol>
    <symbol id="check" viewBox="0 0 24 24" fill="none" stroke="currentColor" stroke-linecap="round" stroke-linejoin="round">
        <polyline points="20 6 9 17 4 12"/>
    </symbol>
    <symbol id="trending-up" viewBox="0 0 24 24" fill="none" stroke="currentColor" stroke-linecap="round" stroke-linejoin="round">
        <polyline points="18 15 12 9 6 15"/>
    </symbol>
    <symbol id="check-circle" viewBox="0 0 24 24" fill="none" stroke="currentColor" stroke-linecap="round" stroke-linejoin="round">
        <path d="M22 11.08V12a10 10 0 1 1-5.93-9.14"/>
        <path d="M22 4L12 14.01l-3-3"/>
    </symbol>
    <symbol id="circle-clock" viewBox="0 0 24 24" fill="none" stroke="currentColor" stroke-linecap="round" stroke-linejoin="round">
        <circle cx="12" cy="12" r="10"/>
        <polyline points="12 6 12 12 16 14"/>
    </symbol>

    <!-- ===== Brand mark (no gradient — use brand-logo.svg for the gradient version) ===== -->
    <symbol id="brand-shield" viewBox="0 0 24 24" fill="currentColor" stroke="none">
        <path d="M12 2L3 6v6c0 5 3.8 9.4 9 10 5.2-.6 9-5 9-10V6l-9-4z"/>
    </symbol>

    <!-- ===== Service icons ===== -->
    <symbol id="cloud" viewBox="0 0 24 24" fill="none" stroke="currentColor" stroke-linecap="round" stroke-linejoin="round">
        <path d="M17.5 19a4.5 4.5 0 1 0-1.6-8.7 6 6 0 0 0-11.7 1.4A4 4 0 0 0 5.5 19h12z"/>
    </symbol>
    <symbol id="shield-check" viewBox="0 0 24 24" fill="none" stroke="currentColor" stroke-linecap="round" stroke-linejoin="round">
        <path d="M12 2L4 6v6c0 5 3.4 9.4 8 10 4.6-.6 8-5 8-10V6l-8-4z"/>
        <path d="M9 12l2 2 4-4"/>
    </symbol>
    <symbol id="code" viewBox="0 0 24 24" fill="none" stroke="currentColor" stroke-linecap="round" stroke-linejoin="round">
        <path d="M16 18l6-6-6-6M8 6l-6 6 6 6"/>
    </symbol>
    <symbol id="sparkle" viewBox="0 0 24 24" fill="none" stroke="currentColor" stroke-linecap="round" stroke-linejoin="round">
        <path d="M12 2v6M12 16v6M4.93 4.93l4.24 4.24M14.83 14.83l4.24 4.24M2 12h6M16 12h6M4.93 19.07l4.24-4.24M14.83 9.17l4.24-4.24"/>
    </symbol>
    <symbol id="pulse" viewBox="0 0 24 24" fill="none" stroke="currentColor" stroke-linecap="round" stroke-linejoin="round">
        <path d="M22 12h-4l-3 9L9 3l-3 9H2"/>
    </symbol>
    <symbol id="layers" viewBox="0 0 24 24" fill="none" stroke="currentColor" stroke-linecap="round" stroke-linejoin="round">
        <path d="M12 2l10 5-10 5L2 7l10-5z"/>
        <path d="M2 17l10 5 10-5M2 12l10 5 10-5"/>
    </symbol>

    <!-- ===== Contact / Footer ===== -->
    <symbol id="envelope" viewBox="0 0 24 24" fill="none" stroke="currentColor" stroke-linecap="round" stroke-linejoin="round">
        <path d="M4 4h16c1.1 0 2 .9 2 2v12c0 1.1-.9 2-2 2H4c-1.1 0-2-.9-2-2V6c0-1.1.9-2 2-2z"/>
        <polyline points="22,6 12,13 2,6"/>
    </symbol>
    <symbol id="phone" viewBox="0 0 24 24" fill="none" stroke="currentColor" stroke-linecap="round" stroke-linejoin="round">
        <path d="M22 16.92v3a2 2 0 0 1-2.18 2 19.79 19.79 0 0 1-8.63-3.07 19.5 19.5 0 0 1-6-6 19.79 19.79 0 0 1-3.07-8.67A2 2 0 0 1 4.11 2h3a2 2 0 0 1 2 1.72 12.84 12.84 0 0 0 .7 2.81 2 2 0 0 1-.45 2.11L8.09 9.91a16 16 0 0 0 6 6l1.27-1.27a2 2 0 0 1 2.11-.45 12.84 12.84 0 0 0 2.81.7A2 2 0 0 1 22 16.92z"/>
    </symbol>
    <symbol id="map-pin" viewBox="0 0 24 24" fill="none" stroke="currentColor" stroke-linecap="round" stroke-linejoin="round">
        <path d="M21 10c0 7-9 13-9 13s-9-6-9-13a9 9 0 0 1 18 0z"/>
        <circle cx="12" cy="10" r="3"/>
    </symbol>
    <symbol id="globe" viewBox="0 0 24 24" fill="none" stroke="currentColor" stroke-linecap="round" stroke-linejoin="round">
        <circle cx="12" cy="12" r="10"/>
        <path d="M2 12h20M12 2a15.3 15.3 0 0 1 4 10 15.3 15.3 0 0 1-4 10 15.3 15.3 0 0 1-4-10 15.3 15.3 0 0 1 4-10z"/>
    </symbol>

    <!-- ===== Drawer icons ===== -->
    <symbol id="home" viewBox="0 0 24 24" fill="none" stroke="currentColor" stroke-linecap="round" stroke-linejoin="round">
        <path d="M3 9l9-7 9 7v11a2 2 0 0 1-2 2H5a2 2 0 0 1-2-2z"/>
        <polyline points="9 22 9 12 15 12 15 22"/>
    </symbol>
    <symbol id="users" viewBox="0 0 24 24" fill="none" stroke="currentColor" stroke-linecap="round" stroke-linejoin="round">
        <path d="M17 21v-2a4 4 0 0 0-4-4H5a4 4 0 0 0-4 4v2"/>
        <circle cx="9" cy="7" r="4"/>
        <path d="M23 21v-2a4 4 0 0 0-3-3.87"/>
        <path d="M16 3.13a4 4 0 0 1 0 7.75"/>
    </symbol>
    <symbol id="document" viewBox="0 0 24 24" fill="none" stroke="currentColor" stroke-linecap="round" stroke-linejoin="round">
        <path d="M14 2H6a2 2 0 0 0-2 2v16a2 2 0 0 0 2 2h12a2 2 0 0 0 2-2V8z"/>
        <polyline points="14 2 14 8 20 8"/>
        <line x1="16" y1="13" x2="8" y2="13"/>
        <line x1="16" y1="17" x2="8" y2="17"/>
    </symbol>

    <!-- ===== Star (filled) ===== -->
    <symbol id="star-filled" viewBox="0 0 24 24" fill="currentColor" stroke="none">
        <polygon points="12 2 15.09 8.26 22 9.27 17 14.14 18.18 21.02 12 17.77 5.82 21.02 7 14.14 2 9.27 8.91 8.26 12 2"/>
    </symbol>

    <!-- ===== Social icons (solid) ===== -->
    <symbol id="linkedin" viewBox="0 0 24 24" fill="currentColor" stroke="none">
        <path d="M20.45 20.45h-3.55v-5.57c0-1.33-.03-3.04-1.85-3.04-1.85 0-2.13 1.45-2.13 2.94v5.67H9.36V9h3.41v1.56h.05c.48-.9 1.64-1.85 3.37-1.85 3.6 0 4.27 2.37 4.27 5.45v6.29zM5.34 7.43a2.06 2.06 0 1 1 0-4.12 2.06 2.06 0 0 1 0 4.12zM7.12 20.45H3.56V9h3.56v11.45zM22.22 0H1.77C.79 0 0 .77 0 1.72v20.56C0 23.23.79 24 1.77 24h20.45c.98 0 1.78-.77 1.78-1.72V1.72C24 .77 23.2 0 22.22 0z"/>
    </symbol>
    <symbol id="twitter" viewBox="0 0 24 24" fill="currentColor" stroke="none">
        <path d="M18.244 2.25h3.308l-7.227 8.26 8.502 11.24H16.17l-5.214-6.817L4.99 21.75H1.68l7.73-8.835L1.254 2.25H8.08l4.713 6.231zm-1.161 17.52h1.833L7.084 4.126H5.117z"/>
    </symbol>
    <symbol id="github" viewBox="0 0 24 24" fill="currentColor" stroke="none">
        <path d="M12 .297a12 12 0 0 0-3.79 23.39c.6.11.82-.26.82-.58v-2.17c-3.34.73-4.04-1.41-4.04-1.41-.55-1.39-1.34-1.76-1.34-1.76-1.09-.75.08-.73.08-.73 1.21.08 1.84 1.24 1.84 1.24 1.07 1.84 2.81 1.31 3.5 1 .11-.78.42-1.31.76-1.61-2.66-.3-5.47-1.33-5.47-5.93 0-1.31.47-2.38 1.24-3.22-.13-.3-.54-1.52.12-3.18 0 0 1.01-.32 3.3 1.23a11.5 11.5 0 0 1 6 0c2.29-1.55 3.3-1.23 3.3-1.23.66 1.66.25 2.88.12 3.18.77.84 1.24 1.91 1.24 3.22 0 4.61-2.81 5.62-5.49 5.92.43.37.82 1.1.82 2.22v3.29c0 .32.21.7.83.58A12 12 0 0 0 12 .297"/>
    </symbol>
    <symbol id="dribbble" viewBox="0 0 24 24" fill="none" stroke="currentColor" stroke-linecap="round" stroke-linejoin="round">
        <circle cx="12" cy="12" r="10"/>
        <path d="M8.56 2.75c4.37 6.03 6.02 9.42 8.03 17.72M19.7 5.51c-3.82 0-9.27 1.13-13.7 5.18M2.07 12.27c5.58 0 11.84-1.5 16.66-6.07"/>
    </symbol>
</svg>
